<svg xmlns="http://www.w3.org/2000/svg" width="512" height="512" viewBox="70 60 370 390">
<g fill="#fff" fill-rule="evenodd">
<path d="M 345.0,169.0 L 317.0,174.0 L 289.0,182.0 L 287.0,184.0 L 280.0,228.0 L 278.0,232.0 L 262.0,221.0 L 236.0,210.0 L 216.0,206.0 L 192.0,206.0 L 175.0,209.0 L 146.0,221.0 L 129.0,233.0 L 116.0,246.0 L 104.0,263.0 L 93.0,289.0 L 89.0,310.0 L 89.0,331.0 L 92.0,349.0 L 97.0,364.0 L 111.0,389.0 L 124.0,404.0 L 145.0,420.0 L 164.0,429.0 L 188.0,435.0 L 210.0,436.0 L 238.0,431.0 L 261.0,421.0 L 277.0,410.0 L 293.0,394.0 L 304.0,378.0 L 316.0,348.0 L 347.0,172.0 Z M 199.0,261.0 L 219.0,263.0 L 239.0,273.0 L 251.0,285.0 L 256.0,293.0 L 262.0,312.0 L 262.0,328.0 L 260.0,337.0 L 250.0,356.0 L 235.0,370.0 L 225.0,375.0 L 209.0,379.0 L 191.0,378.0 L 177.0,373.0 L 169.0,368.0 L 153.0,351.0 L 145.0,330.0 L 145.0,310.0 L 149.0,297.0 L 156.0,285.0 L 172.0,270.0 L 182.0,265.0 Z"/>
<path d="M 422.0,77.0 L 417.0,75.0 L 371.0,78.0 L 343.0,82.0 L 304.0,91.0 L 295.0,143.0 L 301.0,144.0 L 322.0,138.0 L 362.0,131.0 L 413.0,127.0 Z"/>
</g>
</svg>